<svg width="18" height="18" viewBox="0 0 18 18" fill="none" xmlns="http://www.w3.org/2000/svg">
<path d="M15.75 2.25H14.0625V0.5625C14.0625 0.252 13.8105 0 13.5 0H3.375C2.44462 0 1.6875 0.757125 1.6875 1.6875V15.75C1.6875 16.9909 2.69662 18 3.9375 18H15.75C16.0605 18 16.3125 17.748 16.3125 17.4375V2.8125C16.3125 2.502 16.0605 2.25 15.75 2.25ZM9.4185 15.5632C9.31162 15.6814 9.15975 15.75 9 15.75C8.84025 15.75 8.68837 15.6814 8.5815 15.5632C8.2215 15.1616 5.0625 11.583 5.0625 9.5625C5.0625 7.39125 6.82875 5.625 9 5.625C11.1713 5.625 12.9375 7.39125 12.9375 9.5625C12.9375 11.583 9.7785 15.1616 9.4185 15.5632ZM12.9375 2.25H3.375C3.0645 2.25 2.8125 1.998 2.8125 1.6875C2.8125 1.377 3.0645 1.125 3.375 1.125H12.9375V2.25Z" fill="#FF7629"/>
<path d="M9 11.25C9.93198 11.25 10.6875 10.4945 10.6875 9.5625C10.6875 8.63052 9.93198 7.875 9 7.875C8.06802 7.875 7.3125 8.63052 7.3125 9.5625C7.3125 10.4945 8.06802 11.25 9 11.25Z" fill="#FF4975"/>
</svg>
