<svg width="17" height="17" viewBox="0 0 17 17" fill="none" xmlns="http://www.w3.org/2000/svg">
<path d="M16.6926 4.3325C14.4691 2.22592 11.56 1.06567 8.5 1.06567C5.44 1.06567 2.53087 2.22592 0.300322 4.3396C0.10625 4.53367 0 4.79362 0 5.0713C0 5.3518 0.111928 5.61885 0.300322 5.79662L1.98402 7.47962C2.37147 7.86707 3.07414 7.85575 3.43184 7.49592C3.95884 7.0086 4.53897 6.60485 5.15166 6.29885C5.53134 6.1161 5.66661 5.66703 5.66661 5.3086V3.44853C6.57043 3.20558 7.59681 3.1836 8.49993 3.1836C9.45688 3.1836 10.4578 3.20555 11.3333 3.4464V5.3086C11.3333 5.77892 11.5231 6.15153 11.8376 6.30453C12.4786 6.62471 13.0602 7.02773 13.5645 7.50021C13.7572 7.68226 14.0193 7.78708 14.2835 7.78708C14.5618 7.78708 14.8218 7.68013 15.0159 7.48676L16.6996 5.80306C16.893 5.61038 16.9999 5.34974 16.9999 5.07137C17 4.79362 16.8937 4.53367 16.6926 4.3325Z" fill="#FF7629"/>
<path d="M8.5 5.30847C6.15612 5.30847 4.25 7.2146 4.25 9.55847C4.25 11.9023 6.15612 13.8085 8.5 13.8085C8.53188 13.8085 8.56375 13.8063 8.6275 13.8014C8.76068 13.7978 8.88037 13.72 8.93775 13.5995C8.99512 13.4791 8.97955 13.3367 8.89807 13.2305C8.63032 12.8834 8.5 12.4931 8.5 12.0376C8.5 11.6601 8.7033 11.308 9.02982 11.1182C9.35139 10.9312 9.76789 10.9305 10.0909 11.1154C10.3941 11.2896 10.5988 11.3094 10.727 11.3094C10.9416 11.3094 11.1562 11.2436 11.4119 11.1649C11.6733 11.0849 11.9538 11.0041 12.2662 10.9843C12.4156 10.9744 12.5431 10.8724 12.5842 10.7286C12.694 10.3419 12.75 9.94874 12.75 9.55844C12.75 7.21529 10.8439 5.30847 8.5 5.30847ZM8.5 10.9751C7.7187 10.9751 7.08332 10.3397 7.08332 9.55844C7.08332 8.77714 7.7187 8.14176 8.5 8.14176C9.2813 8.14176 9.91668 8.77714 9.91668 9.55844C9.91668 10.3397 9.2813 10.9751 8.5 10.9751Z" fill="#FF7629"/>
<path d="M8.49989 10.2669C8.89109 10.2669 9.20821 9.94974 9.20821 9.55854C9.20821 9.16735 8.89109 8.85022 8.49989 8.85022C8.10869 8.85022 7.79156 9.16735 7.79156 9.55854C7.79156 9.94974 8.10869 10.2669 8.49989 10.2669Z" fill="#FF4975"/>
<path d="M8.49989 10.2669C8.89109 10.2669 9.20821 9.94974 9.20821 9.55854C9.20821 9.16735 8.89109 8.85022 8.49989 8.85022C8.10869 8.85022 7.79156 9.16735 7.79156 9.55854C7.79156 9.94974 8.10869 10.2669 8.49989 10.2669Z" fill="#FF4975"/>
<path d="M12.3959 11.6835C12.1339 11.6835 11.8845 11.7607 11.6203 11.8421C11.0558 12.0164 10.4098 12.1148 9.73826 11.731C9.62845 11.6679 9.49388 11.6679 9.38481 11.7317C9.27574 11.7947 9.20844 11.9116 9.20844 12.0376C9.20844 13.71 12.0644 13.8035 12.3903 13.8085C12.3917 13.8085 12.3938 13.8085 12.3959 13.8085C12.4887 13.8085 12.578 13.7716 12.6446 13.7065C12.7119 13.6406 12.7501 13.5492 12.7501 13.4543V12.0376C12.7501 11.8421 12.5914 11.6835 12.3959 11.6835Z" fill="#FF7629"/>
<path d="M15.1722 11.132L14.1643 9.11603C14.1572 8.99773 14.136 8.8766 14.0991 8.7399C14.0502 8.55998 13.8717 8.44878 13.6862 8.48633C13.5034 8.52388 13.3809 8.69671 13.4064 8.88158C13.4425 9.14014 13.4588 9.35546 13.4588 9.55876C13.4588 10.0794 13.3745 10.5993 13.2095 11.1058C13.174 11.2127 13.1925 11.3303 13.2576 11.4217C13.3894 11.6051 13.4588 11.8184 13.4588 12.0379V13.4546C13.4588 13.7372 13.3434 14.0135 13.1422 14.2118C12.9417 14.4087 12.6775 14.5171 12.38 14.5171C11.6887 14.5065 11.0151 14.3996 10.4314 14.2083C10.3563 14.1835 10.2748 14.1849 10.1991 14.2119C9.64514 14.4144 9.07425 14.5172 8.5005 14.5172C5.76632 14.5172 3.54218 12.293 3.54218 9.55883C3.54218 9.35552 3.55848 9.1402 3.5946 8.88095C3.6201 8.69608 3.49755 8.52325 3.3148 8.4857C3.13487 8.44888 2.95143 8.55938 2.90185 8.73927C2.86503 8.87527 2.84305 8.9971 2.83668 9.1154L1.82873 11.1313C1.55955 11.6704 1.41718 12.2725 1.41718 12.8745V15.5804C1.41718 15.7759 1.57585 15.9345 1.77135 15.9345H15.2297C15.4252 15.9345 15.5839 15.7759 15.5839 15.5804V12.8745C15.5838 12.2724 15.4414 11.6703 15.1722 11.132Z" fill="#FF7629"/>
</svg>
