<svg width="20" height="20" viewBox="0 0 20 20" fill="none" xmlns="http://www.w3.org/2000/svg">
<g clip-path="url(#clip0_2_138)">
<path d="M7.2923 14.6768V18.5418C7.2923 18.8118 7.46563 19.0509 7.7223 19.1359C7.78646 19.1568 7.8523 19.1668 7.9173 19.1668C8.1123 19.1668 8.30063 19.0751 8.42063 18.9118L10.6815 15.8351L7.2923 14.6768Z" fill="white"/>
<path d="M19.7366 0.115053C19.5449 -0.0207806 19.2932 -0.039114 19.0849 0.0700527L0.334894 9.86172C0.113227 9.97755 -0.0176062 10.2142 0.000727169 10.4634C0.0198938 10.7134 0.185727 10.9267 0.421561 11.0076L5.63406 12.7892L16.7349 3.29755L8.14489 13.6467L16.8807 16.6326C16.9457 16.6542 17.0141 16.6659 17.0824 16.6659C17.1957 16.6659 17.3082 16.6351 17.4074 16.5751C17.5657 16.4784 17.6732 16.3159 17.7007 16.1334L19.9924 0.716719C20.0266 0.483386 19.9282 0.251719 19.7366 0.115053Z" fill="white"/>
</g>
<defs>
<clipPath id="clip0_2_138">
<rect width="20" height="20" fill="white"/>
</clipPath>
</defs>
</svg>
