<svg width="30" height="30" viewBox="0 0 30 30" fill="none" xmlns="http://www.w3.org/2000/svg">
<g clip-path="url(#clip0_2_52)">
<path d="M29.6334 27.8668L21.1023 19.3356C22.7548 17.2944 23.7498 14.7007 23.7498 11.8757C23.7498 5.32829 18.4223 0.000825882 11.8748 0.000825882C5.32741 0.000825882 0 5.32823 0 11.8757C0 18.4231 5.32747 23.7506 11.8749 23.7506C14.6999 23.7506 17.2936 22.7556 19.3348 21.1031L27.866 29.6343C28.1097 29.878 28.4297 30.0005 28.7497 30.0005C29.0698 30.0005 29.3898 29.878 29.6335 29.6343C30.1222 29.1455 30.1222 28.3555 29.6334 27.8668ZM11.8749 21.2506C6.70494 21.2506 2.5 17.0456 2.5 11.8757C2.5 6.7057 6.70494 2.50076 11.8749 2.50076C17.0449 2.50076 21.2498 6.7057 21.2498 11.8757C21.2498 17.0456 17.0448 21.2506 11.8749 21.2506Z" fill="white"/>
</g>
<defs>
<clipPath id="clip0_2_52">
<rect width="30" height="30" fill="white"/>
</clipPath>
</defs>
</svg>
