<svg width="97" height="31" viewBox="0 0 97 31" fill="none" xmlns="http://www.w3.org/2000/svg">
<path d="M1.42 0.799999H5.26L7.04 10.22L8.96 0.799999H12.66L12.94 17H10.4L10.1 6.22L8.22 17H5.96L3.96 6.14L3.72 17H1.14L1.42 0.799999ZM16.142 5.44H19.402V7.36C19.802 6.65333 20.1887 6.13333 20.562 5.8C20.9354 5.46667 21.3754 5.3 21.882 5.3C22.0687 5.3 22.2354 5.32 22.382 5.36V8.6C21.982 8.44 21.6287 8.36 21.322 8.36C20.6154 8.36 19.9754 8.73333 19.402 9.48V17H16.142V5.44ZM24.6583 13.92H27.7383V17H24.6583V13.92ZM32.2811 3.46H29.8411V0.799999H38.3011V3.46H35.8811V17H32.2811V3.46ZM40.5673 0.799999H43.8073V6.46C44.6207 5.64667 45.5673 5.24 46.6473 5.24C47.314 5.24 47.834 5.49333 48.2073 6C48.5807 6.49333 48.7673 7.14 48.7673 7.94V17H45.5273V8.4C45.5273 8.10667 45.474 7.89333 45.3673 7.76C45.274 7.61333 45.1073 7.54 44.8673 7.54C44.5873 7.54 44.234 7.68 43.8073 7.96V17H40.5673V0.799999ZM55.5231 17.2C54.2565 17.2 53.2631 16.88 52.5431 16.24C51.8365 15.6 51.4831 14.66 51.4831 13.42V9.02C51.4831 7.78 51.8365 6.84 52.5431 6.2C53.2631 5.56 54.2565 5.24 55.5231 5.24C56.7898 5.24 57.7831 5.56667 58.5031 6.22C59.2231 6.86 59.5831 7.79333 59.5831 9.02V13.42C59.5831 14.6467 59.2231 15.5867 58.5031 16.24C57.7831 16.88 56.7898 17.2 55.5231 17.2ZM55.5431 15.04C55.8498 15.04 56.0631 14.9267 56.1831 14.7C56.3031 14.46 56.3631 14.1067 56.3631 13.64V8.8C56.3631 8.33333 56.3031 7.98667 56.1831 7.76C56.0631 7.52 55.8498 7.4 55.5431 7.4C55.2365 7.4 55.0165 7.52 54.8831 7.76C54.7631 8 54.7031 8.34667 54.7031 8.8V13.64C54.7031 14.1067 54.7631 14.46 54.8831 14.7C55.0165 14.9267 55.2365 15.04 55.5431 15.04ZM62.3911 5.44H65.5911V6.36C66.3644 5.6 67.2778 5.22 68.3311 5.22C68.7978 5.22 69.1978 5.34 69.5311 5.58C69.8778 5.80667 70.1378 6.14667 70.3111 6.6C71.1244 5.68 72.1044 5.22 73.2511 5.22C73.9311 5.22 74.4711 5.47333 74.8711 5.98C75.2844 6.47333 75.4911 7.15333 75.4911 8.02V17H72.2911V8.36C72.2911 8.04 72.2311 7.81333 72.1111 7.68C72.0044 7.53333 71.8378 7.46 71.6111 7.46C71.4644 7.46 71.2911 7.5 71.0911 7.58C70.8911 7.64667 70.7044 7.74667 70.5311 7.88V8.02V17H67.3711V8.36C67.3711 7.76 67.1378 7.46 66.6711 7.46C66.3644 7.46 66.0044 7.6 65.5911 7.88V17H62.3911V5.44ZM80.8297 17.2C80.2697 17.2 79.783 17.0667 79.3697 16.8C78.9697 16.52 78.663 16.1667 78.4497 15.74C78.2497 15.3 78.1497 14.8467 78.1497 14.38C78.1497 13.4867 78.3764 12.7533 78.8297 12.18C79.283 11.6067 79.823 11.16 80.4497 10.84C81.0897 10.52 81.9097 10.1867 82.9097 9.84V8.68C82.9097 8.34667 82.8564 8.09333 82.7497 7.92C82.6564 7.74667 82.483 7.66 82.2297 7.66C81.9764 7.66 81.7964 7.74 81.6897 7.9C81.583 8.06 81.523 8.28667 81.5097 8.58L81.4297 9.42L78.3897 9.3C78.443 7.91333 78.8097 6.89333 79.4897 6.24C80.1697 5.57333 81.183 5.24 82.5297 5.24C83.663 5.24 84.5297 5.56 85.1297 6.2C85.7297 6.82667 86.0297 7.66667 86.0297 8.72V14.12C86.0297 15.2933 86.0964 16.2533 86.2297 17H83.3097C83.1897 16.1067 83.103 15.56 83.0497 15.36C82.8897 15.8933 82.623 16.3333 82.2497 16.68C81.8764 17.0267 81.403 17.2 80.8297 17.2ZM81.9897 15C82.323 15 82.6297 14.8067 82.9097 14.42V11.26C82.3097 11.6067 81.8564 11.9733 81.5497 12.36C81.243 12.7333 81.0897 13.1933 81.0897 13.74C81.0897 14.1267 81.1697 14.4333 81.3297 14.66C81.4897 14.8867 81.7097 15 81.9897 15ZM92.5214 17.2C91.4947 17.2 90.6414 16.9733 89.9614 16.52C89.2947 16.0533 88.7547 15.3133 88.3414 14.3L90.5614 13.32C90.7747 13.8533 91.0214 14.2667 91.3014 14.56C91.5947 14.8533 91.9147 15 92.2614 15C92.7681 15 93.0214 14.8 93.0214 14.4C93.0214 14.1067 92.9214 13.8467 92.7214 13.62C92.5214 13.38 92.0881 12.9867 91.4214 12.44L90.5814 11.74C89.8881 11.1533 89.3814 10.62 89.0614 10.14C88.7547 9.66 88.6014 9.08667 88.6014 8.42C88.6014 7.80667 88.7614 7.26 89.0814 6.78C89.4147 6.3 89.8547 5.92667 90.4014 5.66C90.9481 5.38 91.5347 5.24 92.1614 5.24C93.1081 5.24 93.8947 5.5 94.5214 6.02C95.1614 6.52667 95.6147 7.26 95.8814 8.22L93.7814 9.18C93.6481 8.75333 93.4414 8.37333 93.1614 8.04C92.8814 7.69333 92.5747 7.52 92.2414 7.52C92.0281 7.52 91.8547 7.58 91.7214 7.7C91.6014 7.82 91.5414 7.98 91.5414 8.18C91.5414 8.42 91.6681 8.68 91.9214 8.96C92.1881 9.24 92.6014 9.60667 93.1614 10.06L93.9814 10.78C94.6481 11.34 95.1614 11.8667 95.5214 12.36C95.8814 12.84 96.0614 13.4067 96.0614 14.06C96.0614 14.7133 95.8947 15.28 95.5614 15.76C95.2414 16.2267 94.8081 16.5867 94.2614 16.84C93.7281 17.08 93.1481 17.2 92.5214 17.2ZM3.38 29.1C2.96667 29.1 2.55333 28.92 2.14 28.56V29H0.51V20.9H2.14V23.64C2.33333 23.4667 2.54 23.3367 2.76 23.25C2.98 23.1633 3.19333 23.12 3.4 23.12C3.82 23.12 4.13 23.2767 4.33 23.59C4.53667 23.9033 4.64 24.3133 4.64 24.82V27.31C4.64 27.8633 4.53 28.3 4.31 28.62C4.09 28.94 3.78 29.1 3.38 29.1ZM2.59 28.05C2.73667 28.05 2.84333 27.99 2.91 27.87C2.97667 27.75 3.01 27.5933 3.01 27.4V24.7C3.01 24.52 2.97667 24.3767 2.91 24.27C2.85 24.1567 2.75 24.1 2.61 24.1C2.45667 24.1 2.3 24.1633 2.14 24.29V27.89C2.28667 27.9967 2.43667 28.05 2.59 28.05ZM7.25859 29.1C6.97859 29.1 6.73526 29.0333 6.52859 28.9C6.32859 28.76 6.17526 28.5833 6.06859 28.37C5.96859 28.15 5.91859 27.9233 5.91859 27.69C5.91859 27.2433 6.03193 26.8767 6.25859 26.59C6.48526 26.3033 6.75526 26.08 7.06859 25.92C7.38859 25.76 7.79859 25.5933 8.29859 25.42V24.84C8.29859 24.6733 8.27193 24.5467 8.21859 24.46C8.17193 24.3733 8.08526 24.33 7.95859 24.33C7.83193 24.33 7.74193 24.37 7.68859 24.45C7.63526 24.53 7.60526 24.6433 7.59859 24.79L7.55859 25.21L6.03859 25.15C6.06526 24.4567 6.24859 23.9467 6.58859 23.62C6.92859 23.2867 7.43526 23.12 8.10859 23.12C8.67526 23.12 9.10859 23.28 9.40859 23.6C9.70859 23.9133 9.85859 24.3333 9.85859 24.86V27.56C9.85859 28.1467 9.89193 28.6267 9.95859 29H8.49859C8.43859 28.5533 8.39526 28.28 8.36859 28.18C8.28859 28.4467 8.15526 28.6667 7.96859 28.84C7.78193 29.0133 7.54526 29.1 7.25859 29.1ZM7.83859 28C8.00526 28 8.15859 27.9033 8.29859 27.71V26.13C7.99859 26.3033 7.77193 26.4867 7.61859 26.68C7.46526 26.8667 7.38859 27.0967 7.38859 27.37C7.38859 27.5633 7.42859 27.7167 7.50859 27.83C7.58859 27.9433 7.69859 28 7.83859 28ZM11.3445 23.22H12.9745V24.18C13.1745 23.8267 13.3678 23.5667 13.5545 23.4C13.7411 23.2333 13.9611 23.15 14.2145 23.15C14.3078 23.15 14.3911 23.16 14.4645 23.18V24.8C14.2645 24.72 14.0878 24.68 13.9345 24.68C13.5811 24.68 13.2611 24.8667 12.9745 25.24V29H11.3445V23.22ZM18.5226 29.1C18.1092 29.1 17.6959 28.92 17.2826 28.56V29H15.6526V20.9H17.2826V23.64C17.4759 23.4667 17.6826 23.3367 17.9026 23.25C18.1226 23.1633 18.3359 23.12 18.5426 23.12C18.9626 23.12 19.2726 23.2767 19.4726 23.59C19.6792 23.9033 19.7826 24.3133 19.7826 24.82V27.31C19.7826 27.8633 19.6726 28.3 19.4526 28.62C19.2326 28.94 18.9226 29.1 18.5226 29.1ZM17.7326 28.05C17.8792 28.05 17.9859 27.99 18.0526 27.87C18.1192 27.75 18.1526 27.5933 18.1526 27.4V24.7C18.1526 24.52 18.1192 24.3767 18.0526 24.27C17.9926 24.1567 17.8926 24.1 17.7526 24.1C17.5992 24.1 17.4426 24.1633 17.2826 24.29V27.89C17.4292 27.9967 17.5792 28.05 17.7326 28.05ZM23.1012 29.1C22.4678 29.1 21.9745 28.9333 21.6212 28.6C21.2678 28.26 21.0912 27.7833 21.0912 27.17V25.05C21.0912 24.4367 21.2678 23.9633 21.6212 23.63C21.9745 23.29 22.4678 23.12 23.1012 23.12C23.7412 23.12 24.2212 23.2833 24.5412 23.61C24.8612 23.9367 25.0212 24.4167 25.0212 25.05V26.21H22.7012V27.32C22.7012 27.7333 22.8345 27.94 23.1012 27.94C23.3812 27.94 23.5212 27.7533 23.5212 27.38V26.77H25.0212V27.33C25.0212 27.91 24.8512 28.35 24.5112 28.65C24.1778 28.95 23.7078 29.1 23.1012 29.1ZM23.5212 25.45V24.87C23.5212 24.6567 23.4812 24.5067 23.4012 24.42C23.3278 24.3267 23.2245 24.28 23.0912 24.28C22.9645 24.28 22.8678 24.33 22.8012 24.43C22.7345 24.53 22.7012 24.7067 22.7012 24.96V25.45H23.5212ZM26.4284 23.22H28.0584V24.18C28.2584 23.8267 28.4518 23.5667 28.6384 23.4C28.8251 23.2333 29.0451 23.15 29.2984 23.15C29.3918 23.15 29.4751 23.16 29.5484 23.18V24.8C29.3484 24.72 29.1718 24.68 29.0184 24.68C28.6651 24.68 28.3451 24.8667 28.0584 25.24V29H26.4284V23.22ZM35.5752 29.1C35.0618 29.1 34.6352 28.9867 34.2952 28.76C33.9618 28.5267 33.6918 28.1567 33.4852 27.65L34.5952 27.16C34.7018 27.4267 34.8252 27.6333 34.9652 27.78C35.1118 27.9267 35.2718 28 35.4452 28C35.6985 28 35.8252 27.9 35.8252 27.7C35.8252 27.5533 35.7752 27.4233 35.6752 27.31C35.5752 27.19 35.3585 26.9933 35.0252 26.72L34.6052 26.37C34.2585 26.0767 34.0052 25.81 33.8452 25.57C33.6918 25.33 33.6152 25.0433 33.6152 24.71C33.6152 24.4033 33.6952 24.13 33.8552 23.89C34.0218 23.65 34.2418 23.4633 34.5152 23.33C34.7885 23.19 35.0818 23.12 35.3952 23.12C35.8685 23.12 36.2618 23.25 36.5752 23.51C36.8952 23.7633 37.1218 24.13 37.2552 24.61L36.2052 25.09C36.1385 24.8767 36.0352 24.6867 35.8952 24.52C35.7552 24.3467 35.6018 24.26 35.4352 24.26C35.3285 24.26 35.2418 24.29 35.1752 24.35C35.1152 24.41 35.0852 24.49 35.0852 24.59C35.0852 24.71 35.1485 24.84 35.2752 24.98C35.4085 25.12 35.6152 25.3033 35.8952 25.53L36.3052 25.89C36.6385 26.17 36.8952 26.4333 37.0752 26.68C37.2552 26.92 37.3452 27.2033 37.3452 27.53C37.3452 27.8567 37.2618 28.14 37.0952 28.38C36.9352 28.6133 36.7185 28.7933 36.4452 28.92C36.1785 29.04 35.8885 29.1 35.5752 29.1ZM38.5434 20.9H40.1634V23.73C40.5701 23.3233 41.0434 23.12 41.5834 23.12C41.9168 23.12 42.1768 23.2467 42.3634 23.5C42.5501 23.7467 42.6434 24.07 42.6434 24.47V29H41.0234V24.7C41.0234 24.5533 40.9968 24.4467 40.9434 24.38C40.8968 24.3067 40.8134 24.27 40.6934 24.27C40.5534 24.27 40.3768 24.34 40.1634 24.48V29H38.5434V20.9ZM46.0213 29.1C45.388 29.1 44.8913 28.94 44.5313 28.62C44.178 28.3 44.0013 27.83 44.0013 27.21V25.01C44.0013 24.39 44.178 23.92 44.5313 23.6C44.8913 23.28 45.388 23.12 46.0213 23.12C46.6547 23.12 47.1513 23.2833 47.5113 23.61C47.8713 23.93 48.0513 24.3967 48.0513 25.01V27.21C48.0513 27.8233 47.8713 28.2933 47.5113 28.62C47.1513 28.94 46.6547 29.1 46.0213 29.1ZM46.0313 28.02C46.1847 28.02 46.2913 27.9633 46.3513 27.85C46.4113 27.73 46.4413 27.5533 46.4413 27.32V24.9C46.4413 24.6667 46.4113 24.4933 46.3513 24.38C46.2913 24.26 46.1847 24.2 46.0313 24.2C45.878 24.2 45.768 24.26 45.7013 24.38C45.6413 24.5 45.6113 24.6733 45.6113 24.9V27.32C45.6113 27.5533 45.6413 27.73 45.7013 27.85C45.768 27.9633 45.878 28.02 46.0313 28.02ZM49.4553 23.22H51.0853V23.64C51.272 23.4667 51.4753 23.3367 51.6953 23.25C51.9153 23.1633 52.1286 23.12 52.3353 23.12C52.7553 23.12 53.0653 23.2767 53.2653 23.59C53.472 23.9033 53.5753 24.3133 53.5753 24.82V27.31C53.5753 27.8633 53.4653 28.3 53.2453 28.62C53.0253 28.94 52.7153 29.1 52.3153 29.1C51.9086 29.1 51.4986 28.92 51.0853 28.56V30.9H49.4553V23.22ZM51.5153 28.05C51.662 28.05 51.7686 27.99 51.8353 27.87C51.9086 27.75 51.9453 27.5933 51.9453 27.4V24.7C51.9453 24.5267 51.912 24.3833 51.8453 24.27C51.7786 24.1567 51.6786 24.1 51.5453 24.1C51.3853 24.1 51.232 24.1667 51.0853 24.3V27.9C51.2386 28 51.382 28.05 51.5153 28.05Z" fill="white"/>
</svg>
