<svg width="20" height="20" viewBox="0 0 20 20" fill="none" xmlns="http://www.w3.org/2000/svg">
<path d="M15.4821 10.8319C15.3845 10.7341 15.2685 10.6565 15.1409 10.6035C15.0132 10.5506 14.8763 10.5233 14.7381 10.5233C14.5999 10.5233 14.4631 10.5506 14.3354 10.6035C14.2077 10.6565 14.0918 10.7341 13.9941 10.8319L12.3167 12.5093C11.539 12.2778 10.0879 11.7516 9.16814 10.8319C8.2484 9.91212 7.72224 8.46096 7.49072 7.68328L9.16814 6.00587C9.26595 5.90822 9.34355 5.79225 9.39649 5.66459C9.44943 5.53693 9.47669 5.40008 9.47669 5.26187C9.47669 5.12366 9.44943 4.98681 9.39649 4.85915C9.34355 4.73149 9.26595 4.61551 9.16814 4.51787L4.95881 0.308545C4.86117 0.210735 4.7452 0.133138 4.61754 0.0801948C4.48987 0.0272513 4.35302 0 4.21482 0C4.07661 0 3.93976 0.0272513 3.8121 0.0801948C3.68443 0.133138 3.56846 0.210735 3.47082 0.308545L0.616894 3.16247C0.217008 3.56235 -0.00819078 4.11167 0.000227877 4.67256C0.0244315 6.17108 0.421161 11.3759 4.52315 15.4779C8.62514 19.5799 13.83 19.9756 15.3295 20.0008H15.359C15.9146 20.0008 16.4398 19.7819 16.8375 19.3842L19.6915 16.5302C19.7893 16.4326 19.8669 16.3166 19.9198 16.189C19.9727 16.0613 20 15.9244 20 15.7862C20 15.648 19.9727 15.5112 19.9198 15.3835C19.8669 15.2559 19.7893 15.1399 19.6915 15.0422L15.4821 10.8319ZM15.3485 17.8951C14.0352 17.873 9.54172 17.5205 6.01115 13.9889C2.469 10.4467 2.12594 5.93747 2.10489 4.65047L4.21482 2.54054L6.93615 5.26187L5.57548 6.62253C5.45179 6.74613 5.36085 6.8986 5.31087 7.06616C5.2609 7.23373 5.25347 7.4111 5.28925 7.58226C5.3145 7.70328 5.93222 10.573 7.67909 12.3199C9.42596 14.0667 12.2957 14.6844 12.4167 14.7097C12.5877 14.7465 12.7653 14.7397 12.933 14.6898C13.1007 14.64 13.2532 14.5487 13.3764 14.4245L14.7381 13.0639L17.4595 15.7852L15.3485 17.8951V17.8951Z" fill="white"/>
</svg>
