<svg width="55" height="55" viewBox="0 0 55 55" fill="none" xmlns="http://www.w3.org/2000/svg">
<path fill-rule="evenodd" clip-rule="evenodd" d="M17.1073 2.44292C19.7954 2.31917 20.6525 2.29167 27.5 2.29167C34.3475 2.29167 35.2046 2.32146 37.8904 2.44292C40.5762 2.56438 42.4096 2.99292 44.0137 3.61396C45.6935 4.24875 47.2175 5.24104 48.4779 6.52438C49.7612 7.7825 50.7512 9.30417 51.3837 10.9863C52.0071 12.5904 52.4333 14.4238 52.5571 17.105C52.6808 19.7977 52.7083 20.6548 52.7083 27.5C52.7083 34.3475 52.6785 35.2046 52.5571 37.8927C52.4356 40.574 52.0071 42.4073 51.3837 44.0115C50.7512 45.6938 49.7596 47.218 48.4779 48.4779C47.2175 49.7612 45.6935 50.7512 44.0137 51.3837C42.4096 52.0071 40.5762 52.4333 37.895 52.5571C35.2046 52.6808 34.3475 52.7083 27.5 52.7083C20.6525 52.7083 19.7954 52.6785 17.1073 52.5571C14.426 52.4356 12.5927 52.0071 10.9885 51.3837C9.30628 50.7512 7.78209 49.7595 6.52208 48.4779C5.23962 47.219 4.24718 45.6956 3.61396 44.0137C2.99292 42.4096 2.56667 40.5762 2.44292 37.895C2.31917 35.2023 2.29167 34.3452 2.29167 27.5C2.29167 20.6525 2.32146 19.7954 2.44292 17.1096C2.56438 14.4238 2.99292 12.5904 3.61396 10.9863C4.24812 9.30435 5.24131 7.78093 6.52438 6.52208C7.78259 5.2399 9.30525 4.24748 10.9863 3.61396C12.5904 2.99292 14.4238 2.56667 17.105 2.44292H17.1073ZM37.6865 6.98042C35.0281 6.85896 34.2306 6.83375 27.5 6.83375C20.7694 6.83375 19.9719 6.85896 17.3135 6.98042C14.8546 7.09271 13.5208 7.50292 12.6317 7.84896C11.456 8.30729 10.615 8.85042 9.73271 9.73271C8.89635 10.5464 8.25271 11.5369 7.84896 12.6317C7.50292 13.5208 7.09271 14.8546 6.98042 17.3135C6.85896 19.9719 6.83375 20.7694 6.83375 27.5C6.83375 34.2306 6.85896 35.0281 6.98042 37.6865C7.09271 40.1454 7.50292 41.4792 7.84896 42.3683C8.25229 43.4615 8.89625 44.4537 9.73271 45.2673C10.5463 46.1037 11.5385 46.7477 12.6317 47.151C13.5208 47.4971 14.8546 47.9073 17.3135 48.0196C19.9719 48.141 20.7671 48.1662 27.5 48.1662C34.2329 48.1662 35.0281 48.141 37.6865 48.0196C40.1454 47.9073 41.4792 47.4971 42.3683 47.151C43.544 46.6927 44.385 46.1496 45.2673 45.2673C46.1037 44.4537 46.7477 43.4615 47.151 42.3683C47.4971 41.4792 47.9073 40.1454 48.0196 37.6865C48.141 35.0281 48.1662 34.2306 48.1662 27.5C48.1662 20.7694 48.141 19.9719 48.0196 17.3135C47.9073 14.8546 47.4971 13.5208 47.151 12.6317C46.6927 11.456 46.1496 10.615 45.2673 9.73271C44.4536 8.89641 43.4631 8.25278 42.3683 7.84896C41.4792 7.50292 40.1454 7.09271 37.6865 6.98042V6.98042ZM24.2802 35.271C26.0784 36.0196 28.0807 36.1206 29.945 35.5569C31.8094 34.9931 33.4203 33.7996 34.5024 32.1801C35.5846 30.5607 36.071 28.6157 35.8784 26.6775C35.6859 24.7393 34.8265 22.9281 33.4469 21.5531C32.5674 20.6742 31.504 20.0012 30.3333 19.5826C29.1625 19.164 27.9135 19.0102 26.6761 19.1322C25.4388 19.2543 24.2439 19.6492 23.1775 20.2884C22.111 20.9277 21.1996 21.7955 20.5088 22.8292C19.818 23.863 19.365 25.0371 19.1824 26.267C18.9998 27.4969 19.0922 28.7519 19.4529 29.9418C19.8136 31.1317 20.4336 32.2268 21.2683 33.1483C22.103 34.0698 23.1317 34.7948 24.2802 35.271ZM18.3379 18.3379C19.5411 17.1347 20.9695 16.1803 22.5415 15.5292C24.1135 14.878 25.7984 14.5429 27.5 14.5429C29.2016 14.5429 30.8865 14.878 32.4585 15.5292C34.0305 16.1803 35.4589 17.1347 36.6621 18.3379C37.8653 19.5411 38.8197 20.9695 39.4708 22.5415C40.122 24.1135 40.4571 25.7984 40.4571 27.5C40.4571 29.2016 40.122 30.8865 39.4708 32.4585C38.8197 34.0305 37.8653 35.4589 36.6621 36.6621C34.2321 39.092 30.9364 40.4571 27.5 40.4571C24.0636 40.4571 20.7679 39.092 18.3379 36.6621C15.908 34.2321 14.5429 30.9364 14.5429 27.5C14.5429 24.0636 15.908 20.7679 18.3379 18.3379V18.3379ZM43.3308 16.4725C43.629 16.1912 43.8677 15.853 44.0328 15.4779C44.1979 15.1027 44.286 14.6982 44.292 14.2884C44.298 13.8785 44.2217 13.4717 44.0676 13.0919C43.9135 12.712 43.6847 12.367 43.3949 12.0772C43.1051 11.7873 42.76 11.5586 42.3802 11.4045C42.0004 11.2504 41.5935 11.1741 41.1837 11.1801C40.7739 11.1861 40.3694 11.2742 39.9942 11.4393C39.6191 11.6044 39.2808 11.8431 38.9996 12.1413C38.4526 12.7211 38.1531 13.4913 38.1647 14.2884C38.1764 15.0854 38.4981 15.8466 39.0618 16.4103C39.6255 16.9739 40.3866 17.2957 41.1837 17.3074C41.9808 17.319 42.751 17.0195 43.3308 16.4725V16.4725Z" fill="#CB5614" fill-opacity="0.8"/>
</svg>
