<svg width="20" height="20" viewBox="0 0 20 20" fill="none" xmlns="http://www.w3.org/2000/svg">
<path d="M19.7826 8.93258H3.88373L13.3997 0.393258C13.5519 0.255618 13.4595 0 13.2584 0H10.8536C10.7476 0 10.6471 0.0393257 10.5683 0.10955L0.299618 9.32022C0.205569 9.4045 0.130142 9.50869 0.0784477 9.62573C0.0267536 9.74277 0 9.86993 0 9.9986C0 10.1273 0.0267536 10.2544 0.0784477 10.3715C0.130142 10.4885 0.205569 10.5927 0.299618 10.677L10.6281 19.9438C10.6688 19.9803 10.7177 20 10.7694 20H13.2557C13.4568 20 13.5491 19.7416 13.397 19.6067L3.88373 11.0674H19.7826C19.9022 11.0674 20 10.9663 20 10.8427V9.1573C20 9.03371 19.9022 8.93258 19.7826 8.93258Z" fill="#FF7629" fill-opacity="0.7"/>
</svg>
